<mxfile host="app.diagrams.net" modified="2023-06-15T06:37:04.696Z" agent="Mozilla/5.0 (Windows NT 10.0; Win64; x64; rv:109.0) Gecko/20100101 Firefox/114.0" version="21.4.0" etag="S1HJWsr8p5l3RCwq159v" type="github">
  <diagram name="PÃ¡gina-1" id="ka4AoY8FFku9Bwo0JwTO">
    <mxGraphModel>
      <root>
        <mxCell id="0" />
        <mxCell id="1" parent="0" />
      </root>
    </mxGraphModel>
  </diagram>
</mxfile>
